<?xml version="1.0" encoding="UTF-8" standalone="no"?>
<svg
   version="1.1"
   x="0px"
   y="0px"
   viewBox="0 0 100 125"
   enable-background="new 0 0 100 100"
   xml:space="preserve"
   id="svg2"
   sodipodi:docname="beer.svg"
   inkscape:version="1.4.3 (0d15f75, 2025-12-25)"
   xmlns:inkscape="http://www.inkscape.org/namespaces/inkscape"
   xmlns:sodipodi="http://sodipodi.sourceforge.net/DTD/sodipodi-0.dtd"
   xmlns="http://www.w3.org/2000/svg"
   xmlns:svg="http://www.w3.org/2000/svg">
  <defs id="defs2" />
  <sodipodi:namedview
     id="namedview2"
     pagecolor="#ffffff"
     bordercolor="#000000"
     borderopacity="0.25"
     inkscape:showpageshadow="2"
     inkscape:pageopacity="0.0"
     inkscape:pagecheckerboard="0"
     inkscape:deskcolor="#d1d1d1"
     inkscape:zoom="3.228"
     inkscape:cx="53.283767"
     inkscape:cy="102.38538"
     inkscape:window-width="1920"
     inkscape:window-height="1009"
     inkscape:window-x="3832"
     inkscape:window-y="-8"
     inkscape:window-maximized="1"
     inkscape:current-layer="svg2" />
  <g
     id="g2"
     transform="matrix(1.2786967,0,0,1.2064459,-13.935252,-0.40893502)">
    <g id="g1">
      <!-- Main mug outline with thicker black stroke -->
      <path
         d="m 78.035,39.585 h -5.292 v -3.626 c 3.878,-0.862 6.704,-4.316 6.704,-8.38 0,-4.738 -3.86,-8.593 -8.604,-8.593 -0.573,0 -1.125,0.053 -1.648,0.159 -1.588,-2.425 -4.284,-3.901 -7.213,-3.901 -0.275,0 -0.542,0.011 -0.802,0.034 C 60.691,9.92 56.177,5.709 50.7,5.709 c -2.858,0 -5.515,1.113 -7.466,3.093 -1.979,-2.413 -4.925,-3.82 -8.111,-3.82 -5.809,0 -10.534,4.726 -10.534,10.535 0,0.496 0.033,0.976 0.101,1.448 -5.12,0.457 -9.147,4.775 -9.147,10.017 0,4.25 2.692,8.03 6.628,9.449 v 44.57 7.593 c 0,3.542 2.882,6.423 6.424,6.423 h 37.726 c 3.542,0 6.424,-2.881 6.424,-6.423 V 81.001 73.8 h 5.292 c 3.542,0 6.423,-2.881 6.423,-6.423 V 46.008 C 84.458,42.466 81.577,39.585 78.035,39.585 Z M 59.231,51.04 c -0.553,0 -1,0.447 -1,1 V 80.002 H 48.344 V 52.04 c 0,-0.553 -0.447,-1 -1,-1 -0.553,0 -1,0.447 -1,1 V 80.002 H 35.151 V 52.04 c 0,-0.553 -0.447,-1 -1,-1 -0.553,0 -1,0.447 -1,1 V 80.002 H 24.17 v -43.07 c 0.008,10e-4 0.017,10e-4 0.025,0.002 0.456,0.063 0.922,0.095 1.394,0.095 2.895,0 5.573,-1.21 7.46,-3.308 2.169,4.464 6.709,7.354 11.805,7.354 4.187,0 8.105,-2.018 10.554,-5.352 1.617,1.919 4.021,3.063 6.574,3.063 2.487,0 4.853,-1.088 6.467,-2.945 0.372,0.111 0.755,0.194 1.147,0.251 0.126,0.018 0.258,0.018 0.387,0.03 0.252,0.025 0.503,0.057 0.761,0.06 V 40.585 72.8 80.001 H 60.231 V 52.04 c 0,-0.553 -0.447,-1 -1,-1 z M 17.542,26.982 c 0,-4.443 3.609,-8.057 8.047,-8.057 0.045,0 0.089,-0.003 0.131,0.002 0.339,0.066 0.691,-0.047 0.928,-0.301 0.235,-0.254 0.323,-0.613 0.23,-0.948 -0.194,-0.7 -0.289,-1.407 -0.289,-2.162 0,-4.706 3.828,-8.535 8.534,-8.535 2.942,0 5.631,1.48 7.192,3.958 0.174,0.277 0.474,0.452 0.801,0.466 0.322,0.003 0.64,-0.132 0.84,-0.392 1.605,-2.102 4.064,-3.307 6.744,-3.307 4.7,0 8.523,3.829 8.526,8.578 -0.056,0.332 0.061,0.669 0.309,0.898 0.247,0.229 0.595,0.317 0.92,0.235 0.476,-0.119 0.976,-0.176 1.526,-0.176 2.454,0 4.696,1.351 5.853,3.526 0.228,0.429 0.732,0.632 1.19,0.482 0.548,-0.177 1.159,-0.267 1.818,-0.267 3.642,0 6.604,2.958 6.604,6.593 0,3.351 -2.501,6.164 -5.851,6.549 -1.058,0.157 -2.169,-0.006 -3.108,-0.392 -0.425,-0.173 -0.917,-0.036 -1.189,0.339 -1.228,1.697 -3.216,2.71 -5.317,2.71 -2.367,0 -4.565,-1.282 -5.737,-3.345 -0.178,-0.312 -0.51,-0.506 -0.869,-0.506 0,0 0,0 -10e-4,0 -0.359,0 -0.691,0.194 -0.869,0.507 -1.968,3.474 -5.666,5.632 -9.651,5.632 -4.851,0 -9.106,-3.086 -10.59,-7.681 -0.119,-0.372 -0.445,-0.64 -0.833,-0.686 -0.039,-0.004 -0.079,-0.007 -0.118,-0.007 -0.035,0 -0.068,0.01 -0.102,0.013 -0.034,0.004 -0.068,0.006 -0.102,0.013 -0.057,0.012 -0.111,0.031 -0.165,0.053 -0.03,0.012 -0.06,0.021 -0.088,0.035 -0.055,0.028 -0.104,0.064 -0.152,0.102 -0.023,0.018 -0.048,0.031 -0.069,0.051 -0.066,0.061 -0.126,0.131 -0.174,0.21 -1.478,2.411 -4.046,3.85 -6.871,3.85 -0.747,0 -1.47,-0.097 -2.153,-0.289 -3.472,-0.95 -5.895,-4.14 -5.895,-7.751 z m 53.201,61.612 c 0,2.438 -1.984,4.423 -4.424,4.423 H 28.593 c -2.439,0 -4.424,-1.984 -4.424,-4.423 v -6.593 h 46.573 v 6.593 z M 82.458,67.377 c 0,2.438 -1.984,4.423 -4.423,4.423 H 72.743 V 41.585 h 5.292 c 2.438,0 4.423,1.984 4.423,4.423 z"
         id="path1"
         fill="white"
         stroke="black"
         stroke-width="3.5" />
    </g>
  </g>
  <!-- White detail paths (unchanged) -->
  <path
     style="fill:#ffffff;stroke-width:3"
     d="m 39.457083,45.95374 c -4.006101,-1.181261 -6.598529,-3.288367 -8.59817,-6.988532 -1.595848,-2.952982 -2.362745,-3.156145 -4.121095,-1.091744 -4.708741,5.528321 -13.563056,4.719295 -16.8697312,-1.5414 -3.106981,-5.882607 0.9007642,-12.755247 7.9437162,-13.622202 2.744082,-0.337785 2.91676,-0.552183 2.646226,-3.28558 C 19.4786,9.5284395 32.560401,4.3177968 39.19768,11.960048 c 0.786451,0.905532 1.679808,1.64642 1.985235,1.64642 0.305428,0 1.308931,-0.650225 2.23001,-1.444944 2.324802,-2.005873 4.014555,-2.7345215 6.83716,-2.9482911 2.648443,-0.2005795 5.061681,0.5478219 7.55712,2.3436391 1.539503,1.107888 3.719661,5.064486 3.719661,6.750526 0,2.221558 0.229718,2.400209 3.086325,2.400209 3.194247,0 5.582276,0.983978 7.122452,2.934776 1.472027,1.864481 1.447815,1.855029 4.214641,1.645484 1.957558,-0.148256 2.769713,-0.03248 4.017282,0.572683 6.504811,3.155306 6.501523,10.833837 -0.006,13.990359 -1.330839,0.645536 -2.015025,0.725868 -4.496556,0.527954 l -2.926876,-0.233431 -1.745727,1.449822 c -3.808214,3.162719 -8.852573,2.715991 -12.026573,-1.065072 -1.434846,-1.709278 -2.096326,-1.859985 -3.085728,-0.70303 -2.037608,2.382676 -3.604439,3.87139 -4.846466,4.604843 -3.32627,1.96425 -7.831929,2.566935 -11.376571,1.521745 z"
     id="path2" />
  <path
     style="fill:#ffffff;stroke-width:3"
     d="M 17.16,70.04 V 44.25 l 2.08,-0 c 2.84,-0 4.64,-0.53 7.1,-2.1 1.21,-0.77 2.15,-1.15 2.24,-0.91 0.38,1.07 3.35,4.13 5.04,5.18 3.19,1.99 5.9,2.76 9.69,2.75 5.04,-0.01 9.19,-1.63 12.43,-4.87 l 1.14,-1.14 1.43,1.08 c 3.96,2.99 10.03,2.97 14.02,-0.05 1.2,-0.91 1.73,-1.09 2.67,-0.89 l 1.18,0.24 v 26.13 26.13 H 69.65 63.12 L 63.02,78.54 62.91,61.26 h -1.19 -1.19 l -0.1,17.29 -0.1,17.29 h -6.13 -6.13 L 47.96,78.54 47.86,61.26 H 46.67 45.48 L 45.38,78.54 45.28,95.83 H 38.16 31.03 L 30.93,78.54 30.83,61.26 29.88,61.13 c -0.52,-0.07 -1.1,0.1 -1.28,0.37 -0.18,0.27 -0.34,8.11 -0.34,17.41 l -0.01,16.91 H 22.71 17.16 Z"
     id="path3" />
  <path
     style="fill:#ffffff;stroke-width:3"
     d="m 20.725826,111.26347 c -0.923789,-0.31861 -2.395045,-1.68829 -3.008587,-2.80088 -0.384117,-0.69654 -0.556553,-2.34664 -0.556553,-5.32585 v -4.316617 h 29.511432 29.511433 v 4.503487 c 0,5.07402 -0.39768,6.26489 -2.495024,7.47146 -1.224586,0.70448 -2.146488,0.72859 -26.818345,0.70145 -14.052592,-0.0155 -25.817551,-0.12033 -26.144356,-0.23305 z"
     id="path4" />
  <path
     style="fill:#ffffff;stroke-width:3"
     d="M 79.352563,67.986235 V 49.859646 l 3.664172,5.81e-4 c 4.248939,6.73e-4 5.910064,0.58554 7.320446,2.577462 0.895644,1.264945 0.899181,1.326086 0.899181,15.548546 0,14.222458 -0.0036,14.2836 -0.899181,15.548545 -1.410382,1.991922 -3.071507,2.576789 -7.320446,2.577463 l -3.664172,5.8e-4 z"
     id="path5" />
</svg>