<?xml version="1.0" encoding="UTF-8" standalone="no"?>
<svg
   version="1.1"
   x="0px"
   y="0px"
   viewBox="0 0 100 125"
   enable-background="new 0 0 100 100"
   xml:space="preserve"
   id="svg5"
   sodipodi:docname="beer_pin.svg"
   inkscape:version="1.4.3 (0d15f75, 2025-12-25)"
   xmlns:inkscape="http://www.inkscape.org/namespaces/inkscape"
   xmlns:sodipodi="http://sodipodi.sourceforge.net/DTD/sodipodi-0.dtd"
   xmlns="http://www.w3.org/2000/svg"
   xmlns:svg="http://www.w3.org/2000/svg"><defs
   id="defs5" /><sodipodi:namedview
   id="namedview5"
   pagecolor="#ffffff"
   bordercolor="#000000"
   borderopacity="0.25"
   inkscape:showpageshadow="2"
   inkscape:pageopacity="0.0"
   inkscape:pagecheckerboard="0"
   inkscape:deskcolor="#d1d1d1"
   inkscape:zoom="6.456"
   inkscape:cx="49.953532"
   inkscape:cy="62.190211"
   inkscape:window-width="1920"
   inkscape:window-height="1009"
   inkscape:window-x="3832"
   inkscape:window-y="-8"
   inkscape:window-maximized="1"
   inkscape:current-layer="svg5" />

    <path
   d="m 49.833873,1.1637373 c -25.280419,0 -45.8467699,20.5676117 -45.848031,45.8480317 0,5.130238 0.8411673,10.167153 2.4995407,14.973282 7.6171673,21.944757 20.7214683,41.791009 37.8550503,57.354499 1.470466,1.46164 3.420159,2.26623 5.49344,2.26623 2.074544,0 4.021713,-0.80459 5.450563,-2.22714 17.172676,-15.60006 30.278239,-35.447572 37.897928,-57.397372 1.657113,-4.804869 2.499541,-9.843045 2.499541,-14.97076 0,-25.279159 -20.566352,-45.8467707 -45.848032,-45.8467707 z m 0,80.5364097 c -19.220736,0 -34.857367,-15.63411 -34.857367,-34.853585 0,-19.219475 15.636631,-34.856107 34.857367,-34.856107 19.219475,0 34.856107,15.63411 34.856107,34.854846 0,19.220736 -15.636632,34.854846 -34.856107,34.854846 z"
   id="path1"
   style="stroke-width:1.26112" />
     <circle
   fill="#ffffff"
   cx="49.833878"
   cy="49.561756"
   r="37.833614"
   id="circle1"
   style="stroke-width:1.26112" />
    
<path
   style="fill:#ffffff;stroke-width:0.220834"
   d="m 44.822074,40.460689 c -2.224713,-0.70068 -3.66437,-1.950539 -4.774832,-4.145343 -0.886225,-1.751601 -1.312106,-1.87211 -2.288573,-0.647583 -2.614911,3.2792 -7.531988,2.799315 -9.368289,-0.914302 -1.725403,-3.489349 0.500223,-7.56595 4.411394,-8.080196 1.523874,-0.200362 1.619768,-0.327535 1.469532,-1.948886 -0.543907,-5.869856 6.720825,-8.960619 10.406713,-4.427513 0.436741,0.537129 0.93285,0.976597 1.102463,0.976597 0.169613,0 0.726891,-0.38569 1.238394,-0.857089 1.291035,-1.189811 2.229408,-1.622019 3.796888,-1.748819 1.470764,-0.118977 2.81091,0.324948 4.196705,1.390162 0.854934,0.657159 2.065644,3.004069 2.065644,4.004167 0,1.317747 0.127569,1.423716 1.713932,1.423716 1.773866,0 3.100013,0.58366 3.95532,1.740803 0.817463,1.105942 0.804017,1.100335 2.340522,0.976041 1.087093,-0.08794 1.538108,-0.01927 2.230922,0.339695 3.612324,1.871613 3.610498,6.426239 -0.0033,8.298573 -0.739056,0.382908 -1.119006,0.430558 -2.497078,0.313163 l -1.625385,-0.138463 -0.969457,0.859982 c -2.11482,1.87601 -4.91611,1.611028 -6.678731,-0.631762 -0.796815,-1.013881 -1.164155,-1.103275 -1.713601,-0.417012 -1.131547,1.413317 -2.001658,2.296368 -2.691394,2.731426 -1.847182,1.165122 -4.349314,1.522613 -6.317765,0.902643 z"
   id="path2" /><path
   style="fill:#ffffff;stroke-width:0.220834"
   d="M 34.420022,79.200051 C 33.907014,79.011063 33.089979,78.198619 32.74926,77.53867 32.535947,77.125509 32.440189,76.146729 32.440189,74.37957 v -2.560461 h 16.388618 16.38862 v 2.671305 c 0,3.009724 -0.220844,3.716105 -1.385565,4.431799 -0.68005,0.417872 -1.192011,0.432173 -14.893063,0.416075 -7.803843,-0.0092 -14.337291,-0.07138 -14.518777,-0.138237 z"
   id="path4" /><path
   style="fill:#ffffff;stroke-width:0.220834"
   d="M 66.977279,53.529566 V 42.777531 l 2.034829,3.45e-4 c 2.359569,3.99e-4 3.282043,0.347321 4.065272,1.528857 0.497379,0.75032 0.499343,0.786586 0.499343,9.222833 0,8.436246 -0.002,8.472513 -0.499343,9.222833 -0.783229,1.181535 -1.705703,1.528458 -4.065272,1.528857 l -2.034829,3.44e-4 z"
   id="path5" /><g
   id="g2"
   transform="matrix(0.65255742,0,0,0.67811617,18.795994,13.049827)">
    <g
   id="g1">
      <!-- Main mug outline with thicker black stroke -->
      <path
   d="m 78.035,39.585 h -5.292 v -3.626 c 3.878,-0.862 6.704,-4.316 6.704,-8.38 0,-4.738 -3.86,-8.593 -8.604,-8.593 -0.573,0 -1.125,0.053 -1.648,0.159 -1.588,-2.425 -4.284,-3.901 -7.213,-3.901 -0.275,0 -0.542,0.011 -0.802,0.034 C 60.691,9.92 56.177,5.709 50.7,5.709 c -2.858,0 -5.515,1.113 -7.466,3.093 -1.979,-2.413 -4.925,-3.82 -8.111,-3.82 -5.809,0 -10.534,4.726 -10.534,10.535 0,0.496 0.033,0.976 0.101,1.448 -5.12,0.457 -9.147,4.775 -9.147,10.017 0,4.25 2.692,8.03 6.628,9.449 v 44.57 7.593 c 0,3.542 2.882,6.423 6.424,6.423 h 37.726 c 3.542,0 6.424,-2.881 6.424,-6.423 V 81.001 73.8 h 5.292 c 3.542,0 6.423,-2.881 6.423,-6.423 V 46.008 C 84.458,42.466 81.577,39.585 78.035,39.585 Z M 59.231,51.04 c -0.553,0 -1,0.447 -1,1 V 80.002 H 48.344 V 52.04 c 0,-0.553 -0.447,-1 -1,-1 -0.553,0 -1,0.447 -1,1 V 80.002 H 35.151 V 52.04 c 0,-0.553 -0.447,-1 -1,-1 -0.553,0 -1,0.447 -1,1 V 80.002 H 24.17 v -43.07 c 0.008,10e-4 0.017,10e-4 0.025,0.002 0.456,0.063 0.922,0.095 1.394,0.095 2.895,0 5.573,-1.21 7.46,-3.308 2.169,4.464 6.709,7.354 11.805,7.354 4.187,0 8.105,-2.018 10.554,-5.352 1.617,1.919 4.021,3.063 6.574,3.063 2.487,0 4.853,-1.088 6.467,-2.945 0.372,0.111 0.755,0.194 1.147,0.251 0.126,0.018 0.258,0.018 0.387,0.03 0.252,0.025 0.503,0.057 0.761,0.06 V 40.585 72.8 80.001 H 60.231 V 52.04 c 0,-0.553 -0.447,-1 -1,-1 z M 17.542,26.982 c 0,-4.443 3.609,-8.057 8.047,-8.057 0.045,0 0.089,-0.003 0.131,0.002 0.339,0.066 0.691,-0.047 0.928,-0.301 0.235,-0.254 0.323,-0.613 0.23,-0.948 -0.194,-0.7 -0.289,-1.407 -0.289,-2.162 0,-4.706 3.828,-8.535 8.534,-8.535 2.942,0 5.631,1.48 7.192,3.958 0.174,0.277 0.474,0.452 0.801,0.466 0.322,0.003 0.64,-0.132 0.84,-0.392 1.605,-2.102 4.064,-3.307 6.744,-3.307 4.7,0 8.523,3.829 8.526,8.578 -0.056,0.332 0.061,0.669 0.309,0.898 0.247,0.229 0.595,0.317 0.92,0.235 0.476,-0.119 0.976,-0.176 1.526,-0.176 2.454,0 4.696,1.351 5.853,3.526 0.228,0.429 0.732,0.632 1.19,0.482 0.548,-0.177 1.159,-0.267 1.818,-0.267 3.642,0 6.604,2.958 6.604,6.593 0,3.351 -2.501,6.164 -5.851,6.549 -1.058,0.157 -2.169,-0.006 -3.108,-0.392 -0.425,-0.173 -0.917,-0.036 -1.189,0.339 -1.228,1.697 -3.216,2.71 -5.317,2.71 -2.367,0 -4.565,-1.282 -5.737,-3.345 -0.178,-0.312 -0.51,-0.506 -0.869,-0.506 0,0 0,0 -10e-4,0 -0.359,0 -0.691,0.194 -0.869,0.507 -1.968,3.474 -5.666,5.632 -9.651,5.632 -4.851,0 -9.106,-3.086 -10.59,-7.681 -0.119,-0.372 -0.445,-0.64 -0.833,-0.686 -0.039,-0.004 -0.079,-0.007 -0.118,-0.007 -0.035,0 -0.068,0.01 -0.102,0.013 -0.034,0.004 -0.068,0.006 -0.102,0.013 -0.057,0.012 -0.111,0.031 -0.165,0.053 -0.03,0.012 -0.06,0.021 -0.088,0.035 -0.055,0.028 -0.104,0.064 -0.152,0.102 -0.023,0.018 -0.048,0.031 -0.069,0.051 -0.066,0.061 -0.126,0.131 -0.174,0.21 -1.478,2.411 -4.046,3.85 -6.871,3.85 -0.747,0 -1.47,-0.097 -2.153,-0.289 -3.472,-0.95 -5.895,-4.14 -5.895,-7.751 z m 53.201,61.612 c 0,2.438 -1.984,4.423 -4.424,4.423 H 28.593 c -2.439,0 -4.424,-1.984 -4.424,-4.423 v -6.593 h 46.573 v 6.593 z M 82.458,67.377 c 0,2.438 -1.984,4.423 -4.423,4.423 H 72.743 V 41.585 h 5.292 c 2.438,0 4.423,1.984 4.423,4.423 z"
   id="path1-4"
   fill="#ffffff"
   stroke="#000000"
   stroke-width="3.5" />
    </g>
  </g><path
   style="fill:#ffffff;stroke-width:1.07116"
   d="m 46.04371,39.109246 c -2.044434,-0.66396 -3.367428,-1.848317 -4.387905,-3.928097 -0.814409,-1.659804 -1.20578,-1.773998 -2.103119,-0.613644 -2.403012,3.107345 -6.921636,2.652609 -8.609131,-0.866387 -1.585586,-3.306481 0.459687,-7.169438 4.053917,-7.656733 1.400388,-0.189862 1.488511,-0.31037 1.350449,-1.846752 -0.499833,-5.562231 6.176205,-8.491016 9.563408,-4.195478 0.401349,0.508979 0.857257,0.925416 1.013125,0.925416 0.155869,0 0.667987,-0.365477 1.138041,-0.812171 1.186417,-1.127456 2.048749,-1.537013 3.489209,-1.657168 1.35158,-0.112742 2.583128,0.307918 3.856626,1.317306 0.785655,0.622719 1.898255,2.846635 1.898255,3.79432 0,1.248688 0.117232,1.349104 1.575044,1.349104 1.630121,0 2.848803,0.553072 3.634802,1.649571 0.75122,1.047984 0.738863,1.04267 2.150858,0.92489 0.999001,-0.08333 1.413468,-0.01826 2.05014,0.321892 3.319601,1.773527 3.317923,6.089457 -0.003,7.863667 -0.679166,0.362842 -1.028327,0.407995 -2.294727,0.296752 l -1.493673,-0.131207 -0.890897,0.814913 c -1.943446,1.777693 -4.517734,1.526597 -6.137522,-0.598654 -0.732245,-0.960747 -1.069818,-1.045456 -1.57474,-0.395157 -1.039853,1.339248 -1.839454,2.176021 -2.473297,2.588279 -1.697496,1.104061 -3.996869,1.442816 -5.805807,0.855338 z"
   id="path2-8" /><path
   style="fill:#ffffff;stroke-width:1.07116"
   d="M 34.664837,52.647593 V 38.151612 h 1.061487 c 1.449338,0 2.367932,-0.297901 3.623344,-1.180363 0.617499,-0.432799 1.097209,-0.646388 1.14314,-0.51149 0.193925,0.601423 1.709605,2.32138 2.572063,2.911562 1.627953,1.118535 3.010947,1.551334 4.945099,1.545714 2.572063,-0.0056 4.689933,-0.916187 6.343403,-2.737319 l 0.581776,-0.640768 0.729772,0.607043 c 2.020907,1.680613 5.118612,1.669371 7.154828,-0.0281 0.612396,-0.51149 0.882872,-0.612664 1.362582,-0.500249 l 0.602189,0.134899 v 14.687083 14.687087 h -3.332455 -3.332456 l -0.05103,-9.701458 -0.05614,-9.712701 h -0.607293 -0.607293 l -0.05103,9.718321 -0.05103,9.718321 h -3.128328 -3.128324 l -0.05614,-9.723941 -0.05103,-9.712701 h -0.607293 -0.607293 l -0.05103,9.712701 -0.05103,9.71832 h -3.63355 -3.638654 l -0.05103,-9.71832 -0.05103,-9.712701 -0.484813,-0.07307 c -0.265373,-0.03935 -0.561363,0.05621 -0.653223,0.20797 -0.09186,0.151761 -0.173513,4.558448 -0.173513,9.78577 l -0.0051,9.504731 h -2.827218 -2.832332 z"
   id="path3" /><path
   style="fill:#ffffff;stroke-width:1.07116"
   d="m 36.484586,75.818381 c -0.471438,-0.179084 -1.222264,-0.94895 -1.535373,-1.574312 -0.196026,-0.39151 -0.284026,-1.318994 -0.284026,-2.993541 V 68.824254 H 49.72576 64.786332 v 2.531309 c 0,2.851993 -0.202948,3.521355 -1.273285,4.19954 -0.624944,0.395973 -1.095418,0.409524 -13.68621,0.39427 -7.17146,-0.0087 -13.175472,-0.06763 -13.342251,-0.130992 z"
   id="path4-8" /><path
   style="fill:#ffffff;stroke-width:1.07116"
   d="M 66.403574,51.493218 V 41.304669 l 1.869938,3.26e-4 c 2.168361,3.79e-4 3.016083,0.329119 3.735844,1.448734 0.457074,0.710997 0.458879,0.745363 0.458879,8.739489 0,7.994125 -0.0019,8.028491 -0.458879,8.739488 -0.719761,1.119614 -1.567483,1.448356 -3.735844,1.448734 l -1.869938,3.27e-4 z"
   id="path5-2" /></svg>
