<svg xmlns="http://www.w3.org/2000/svg" version="1.1" viewBox="36 18 34 42">
 <path fill="white" stroke="black" stroke-width="0.8" stroke-linejoin="round" d="M62.517,29.748v-2.965c0-0.552-0.447-1-1-1h-0.042c-0.074-0.478-0.47-0.851-0.97-0.851c-4.484,0-8.826-1.355-12.564-3.923c-0.983-0.664-2.131-1.015-3.32-1.015c-3.234,0-5.869,2.601-5.932,5.82c-0.473,0.08-0.839,0.473-0.839,0.968v24.167c0,3.309,2.691,6,6,6h12.667c3.309,0,6-2.691,6-6v-0.217c3.24-0.078,5.854-2.732,5.854-5.992v-9C68.37,32.481,65.757,29.827,62.517,29.748z M56.183,27.783h4.334v4.583h-4.334C56.183,30.876,56.183,28.938,56.183,27.783z M44.621,21.995c0.789,0,1.55,0.232,2.194,0.667c2.334,1.604,4.894,2.758,7.573,3.463c-0.203,0.482-0.205,1.647-0.205,4.49v3.833c0,0.574-0.467,1.042-1.041,1.042s-1.041-0.467-1.041-1.042v-7.667c0-0.552-0.447-1-1-1H40.698C40.779,23.683,42.5,21.995,44.621,21.995z M39.85,27.783h10.251v4.583H39.85V27.783z M60.517,50.949c0,2.206-1.794,4-4,4H43.85c-2.206,0-4-1.794-4-4V34.366h10.251v0.083c0,1.677,1.364,3.042,3.041,3.042s3.041-1.364,3.041-3.042c0,0,0-0.034,0-0.083h4.334V50.949z M66.37,44.741c0,2.155-1.717,3.906-3.854,3.985V31.755c2.137,0.079,3.854,1.83,3.854,3.985V44.741z"/>
 <path fill="black" stroke="none" d="M50.183,37.803c-0.552,0-1,0.448-1,1v13.188c0,0.553,0.448,1,1,1s1-0.447,1-1V38.803C51.184,38.251,50.735,37.803,50.183,37.803z"/>
 <path fill="black" stroke="none" d="M44.229,37.803c-0.552,0-1,0.448-1,1v13.188c0,0.553,0.448,1,1,1s1-0.447,1-1V38.803C45.229,38.251,44.781,37.803,44.229,37.803z"/>
 <path fill="black" stroke="none" d="M56.138,37.803c-0.553,0-1,0.448-1,1v13.188c0,0.553,0.447,1,1,1s1-0.447,1-1V38.803C57.138,38.251,56.69,37.803,56.138,37.803z"/>
</svg>
