<?xml version="1.0" encoding="UTF-8" standalone="no"?>
<svg
   version="1.1"
   x="0px"
   y="0px"
   viewBox="0 0 100 125"
   enable-background="new 0 0 100 100"
   xml:space="preserve"
   id="svg5"
   sodipodi:docname="glass_pin.svg"
   inkscape:version="1.4.3 (0d15f75, 2025-12-25)"
   xmlns:inkscape="http://www.inkscape.org/namespaces/inkscape"
   xmlns:sodipodi="http://sodipodi.sourceforge.net/DTD/sodipodi-0.dtd"
   xmlns="http://www.w3.org/2000/svg"
   xmlns:svg="http://www.w3.org/2000/svg"><defs
   id="defs5" /><sodipodi:namedview
   id="namedview5"
   pagecolor="#ffffff"
   bordercolor="#000000"
   borderopacity="0.25"
   inkscape:showpageshadow="2"
   inkscape:pageopacity="0.0"
   inkscape:pagecheckerboard="0"
   inkscape:deskcolor="#d1d1d1"
   inkscape:zoom="6.456"
   inkscape:cx="49.953532"
   inkscape:cy="62.345105"
   inkscape:window-width="1920"
   inkscape:window-height="1009"
   inkscape:window-x="3832"
   inkscape:window-y="-8"
   inkscape:window-maximized="1"
   inkscape:current-layer="svg5" />

    <path
   d="m 49.833873,1.1637373 c -25.280419,0 -45.8467699,20.5676117 -45.848031,45.8480317 0,5.130238 0.8411673,10.167153 2.4995407,14.973282 7.6171673,21.944757 20.7214683,41.791009 37.8550503,57.354499 1.470466,1.46164 3.420159,2.26623 5.49344,2.26623 2.074544,0 4.021713,-0.80459 5.450563,-2.22714 17.172676,-15.60006 30.278239,-35.447572 37.897928,-57.397372 1.657113,-4.804869 2.499541,-9.843045 2.499541,-14.97076 0,-25.279159 -20.566352,-45.8467707 -45.848032,-45.8467707 z m 0,80.5364097 c -19.220736,0 -34.857367,-15.63411 -34.857367,-34.853585 0,-19.219475 15.636631,-34.856107 34.857367,-34.856107 19.219475,0 34.856107,15.63411 34.856107,34.854846 0,19.220736 -15.636632,34.854846 -34.856107,34.854846 z"
   id="path1"
   style="stroke-width:1.26112" />
     <circle
   fill="#ffffff"
   cx="49.833878"
   cy="49.561756"
   r="37.833614"
   id="circle1"
   style="stroke-width:1.26112" />
    
<g
   transform="matrix(0.45620601,0,0,0.41977227,27.73972,25.629862)"
   id="g1"><path
     d="M 56.497031,53.693647 95.47469,0.72300883 c 1.2543,-1.7110822 1.442805,-3.98036153 0.485774,-5.88005833 C 95.003413,-7.049322 93.06034,-8.2457506 90.936057,-8.2457506 H 5.2520261 c -2.1242816,0 -4.0674109,1.1962986 -5.02440536,3.0887011 -0.95703155,1.8995112 -0.76852829,4.16893907 0.49302964,5.88005833 L 39.698309,53.693647 c 1.094791,1.486311 1.689329,3.284332 1.682072,5.133173 v 43.71252 c 0.0073,1.66031 -1.000538,3.15384 -2.54487,3.76282 l -16.538035,6.66296 -0.340757,0.18125 c -1.979323,1.31957 -2.86393,3.78473 -2.17514,6.06122 0.688773,2.27666 2.791359,3.84264 5.169553,3.84264 h 46.286897 c 2.378008,-0.007 4.48076,-1.56607 5.169551,-3.84264 0.688772,-2.27667 -0.19576,-4.74173 -2.175139,-6.06122 L 57.35363,106.30208 c -1.537055,-0.60901 -2.54487,-2.10256 -2.54487,-3.76283 V 58.826737 c 0,-1.848821 0.587282,-3.646823 1.68933,-5.133172 z m -0.565529,56.138963 16.320503,6.57609 c 0.522022,0.42777 0.717783,1.1383 0.485772,1.77632 -0.224751,0.63803 -0.82653,1.05854 -1.500806,1.05854 H 24.950073 c -0.674276,0 -1.276055,-0.42051 -1.508064,-1.05854 -0.224753,-0.63802 -0.029,-1.34855 0.493012,-1.77632 l 16.327741,-6.57609 h -0.0073 c 2.987173,-1.18904 4.93754,-4.08189 4.930117,-7.29383 V 58.826262 c 0,-2.660874 -0.848284,-5.249177 -2.428866,-7.388122 L 3.779105,-1.5324984 C 3.3730872,-2.0835311 3.3078277,-2.8230487 3.6195993,-3.4392483 3.9313655,-4.0555222 4.5621348,-4.4397864 5.2509254,-4.4397864 H 90.934956 c 0.688773,0 1.319561,0.3842642 1.631328,1.0005381 0.311764,0.6162738 0.253762,1.3558099 -0.159508,1.9067499 L 53.429118,51.43814 c -1.580563,2.13876 -2.428865,4.727248 -2.421626,7.388122 v 43.712518 c -0.0073,3.21194 1.943129,6.10483 4.922878,7.29383 z"
     fill="#000000"
     id="path3"
     style="stroke-width:1.85607" /><path
     d="M 52.807146,47.559306 75.087519,17.672723 H 21.10903 l 22.280371,29.886583 c 1.109304,1.486311 2.849452,2.363531 4.705531,2.363531 1.856079,0 3.603393,-0.877294 4.712771,-2.363531 z"
     fill="#000000"
     id="path4"
     style="stroke-width:1.85607" /></g></svg>
