<?xml version="1.0" encoding="UTF-8" standalone="no"?>
<svg
   version="1.1"
   viewBox="-5.0 -10.0 110.0 135.0"
   id="svg2"
   sodipodi:docname="glass.svg"
   inkscape:version="1.4.3 (0d15f75, 2025-12-25)"
   xmlns:inkscape="http://www.inkscape.org/namespaces/inkscape"
   xmlns:sodipodi="http://sodipodi.sourceforge.net/DTD/sodipodi-0.dtd"
   xmlns="http://www.w3.org/2000/svg"
   xmlns:svg="http://www.w3.org/2000/svg">
  <defs
     id="defs2" />
  <sodipodi:namedview
     id="namedview2"
     pagecolor="#ffffff"
     bordercolor="#000000"
     borderopacity="0.25"
     inkscape:showpageshadow="2"
     inkscape:pageopacity="0.0"
     inkscape:pagecheckerboard="0"
     inkscape:deskcolor="#d1d1d1"
     inkscape:zoom="5.9777778"
     inkscape:cx="54.953531"
     inkscape:cy="67.332714"
     inkscape:window-width="1920"
     inkscape:window-height="1009"
     inkscape:window-x="3832"
     inkscape:window-y="-8"
     inkscape:window-maximized="1"
     inkscape:current-layer="svg2" />
  <path
     d="M 56.497031,53.693647 95.47469,0.72300883 c 1.2543,-1.7110822 1.442805,-3.98036153 0.485774,-5.88005833 C 95.003413,-7.049322 93.06034,-8.2457506 90.936057,-8.2457506 H 5.2520261 c -2.1242816,0 -4.0674109,1.1962986 -5.02440536,3.0887011 -0.95703155,1.8995112 -0.76852829,4.16893907 0.49302964,5.88005833 L 39.698309,53.693647 c 1.094791,1.486311 1.689329,3.284332 1.682072,5.133173 v 43.71252 c 0.0073,1.66031 -1.000538,3.15384 -2.54487,3.76282 l -16.538035,6.66296 -0.340757,0.18125 c -1.979323,1.31957 -2.86393,3.78473 -2.17514,6.06122 0.688773,2.27666 2.791359,3.84264 5.169553,3.84264 h 46.286897 c 2.378008,-0.007 4.48076,-1.56607 5.169551,-3.84264 0.688772,-2.27667 -0.19576,-4.74173 -2.175139,-6.06122 L 57.35363,106.30208 c -1.537055,-0.60901 -2.54487,-2.10256 -2.54487,-3.76283 V 58.826737 c 0,-1.848821 0.587282,-3.646823 1.68933,-5.133172 z m -0.565529,56.138963 16.320503,6.57609 c 0.522022,0.42777 0.717783,1.1383 0.485772,1.77632 -0.224751,0.63803 -0.82653,1.05854 -1.500806,1.05854 H 24.950073 c -0.674276,0 -1.276055,-0.42051 -1.508064,-1.05854 -0.224753,-0.63802 -0.029,-1.34855 0.493012,-1.77632 l 16.327741,-6.57609 h -0.0073 c 2.987173,-1.18904 4.93754,-4.08189 4.930117,-7.29383 V 58.826262 c 0,-2.660874 -0.848284,-5.249177 -2.428866,-7.388122 L 3.779105,-1.5324984 C 3.3730872,-2.0835311 3.3078277,-2.8230487 3.6195993,-3.4392483 3.9313655,-4.0555222 4.5621348,-4.4397864 5.2509254,-4.4397864 H 90.934956 c 0.688773,0 1.319561,0.3842642 1.631328,1.0005381 0.311764,0.6162738 0.253762,1.3558099 -0.159508,1.9067499 L 53.429118,51.43814 c -1.580563,2.13876 -2.428865,4.727248 -2.421626,7.388122 v 43.712518 c -0.0073,3.21194 1.943129,6.10483 4.922878,7.29383 z"
     id="path1"
     style="stroke-width:1.85607" />
  <path
     d="M 52.807146,47.559306 75.087519,17.672723 H 21.10903 l 22.280371,29.886583 c 1.109304,1.486311 2.849452,2.363531 4.705531,2.363531 1.856079,0 3.603393,-0.877294 4.712771,-2.363531 z"
     id="path2"
     style="stroke-width:1.85607" />
  <path
     style="fill:#ffffff;stroke-width:0.167286"
     d="m 29.358736,129.01472 c -0.616539,-0.30806 -1.018156,-1.20033 -0.809585,-1.79864 0.09152,-0.26253 0.254656,-0.54618 0.362528,-0.63033 0.107869,-0.0842 3.80951,-1.60195 8.225867,-3.37289 4.416357,-1.77095 8.479131,-3.4567 9.028385,-3.74612 1.972131,-1.03918 3.509291,-3.14197 3.931028,-5.37752 0.136772,-0.72501 0.175406,-7.43734 0.139132,-24.172863 -0.05632,-25.984536 0.03946,-24.006196 -1.290423,-26.65341 C 48.562275,62.49978 40.938174,51.994372 28.546518,35.15453 17.663696,20.365143 8.6837149,8.04714 8.5910041,7.7811897 8.3512676,7.0934811 8.8257976,6.1406932 9.5610452,5.8334872 10.028295,5.6382577 16.860814,5.608858 53.374941,5.6449601 l 43.260319,0.042772 0.488133,0.5463195 c 1.054559,1.1802676 1.84739,-0.057939 -12.075469,18.8588854 -27.902324,37.910554 -27.258036,37.02341 -27.92456,38.450375 -1.22446,2.621454 -1.166115,1.265499 -1.166115,27.10116 0,22.721608 0.0063,23.179108 0.336123,24.246818 0.406894,1.31736 1.448508,2.92418 2.402164,3.70563 1.020242,0.83602 1.870805,1.21379 10.560969,4.69057 4.359585,1.74419 7.99288,3.29217 8.155205,3.47455 0.330106,0.3709 0.382777,1.14936 0.112,1.65531 -0.44846,0.83796 0.355409,0.81145 -24.530419,0.80881 -18.226099,-0.002 -23.306232,-0.0474 -23.634555,-0.21144 z M 55.640783,59.424676 c 0.496083,-0.243443 1.180727,-0.71432 1.52143,-1.046394 0.549686,-0.535762 23.051541,-30.581956 23.051541,-30.780177 0,-0.04374 -12.195167,-0.07952 -27.100371,-0.07952 -14.905205,0 -27.100372,0.04552 -27.100372,0.101157 0,0.08799 5.33664,7.27247 19.249874,25.915245 3.797498,5.088388 4.234751,5.543617 5.893222,6.135504 1.277352,0.455872 3.278288,0.346196 4.484676,-0.245817 z"
     id="path3"
     transform="translate(-5,-10)" />
</svg>
