<svg xmlns="http://www.w3.org/2000/svg" version="1.1" viewBox="-5.0 -10.0 110.0 135.0">
 <!-- Collar: solid teardrop -->
 <path fill="black" d="M50 3.125c-20.676 0-37.5 16.824-37.5 37.5 0 20.277 34.926 54.367 36.41 55.809l1.0898 1.0547 1.0898-1.0547c1.4844-1.4414 36.41-35.531 36.41-55.809 0-20.676-16.824-37.5-37.5-37.5z"/>
 <!-- White fill for badge area -->
 <circle fill="white" cx="50" cy="40.625" r="24" />
 <!-- Badge ring and glass icon -->
 <path fill="black" d="M50 15.625c-13.785 0-25 11.215-25 25s11.215 25 25 25 25-11.215 25-25-11.215-25-25-25zM50 62.5c-12.062 0-21.875-9.8125-21.875-21.875s9.8125-21.875 21.875-21.875 21.875 9.8125 21.875 21.875-9.8125 21.875-21.875 21.875zM39.062 34.375c0 5.5 4.0859 10.051 9.375 10.812v7.9375h-3.125v3.125h9.375v-3.125h-3.125v-7.9375c5.2891-0.76172 9.375-5.3125 9.375-10.812v-7.8125h-21.875zM42.187 29.6875h15.625v4.6875c0 4.3086-3.5039 7.8125-7.8125 7.8125s-7.8125-3.5039-7.8125-7.8125z"/>
</svg>
